<svg width="150" height="50" viewBox="0 0 150 50" fill="none" xmlns="http://www.w3.org/2000/svg">
<rect width="150" height="50" fill="white"/>
<path d="M24.14 17.8V25.92C24.14 27.5867 23.66 28.8867 22.7 29.82C21.74 30.74 20.38 31.2 18.62 31.2C17.3267 31.2 16.2867 30.9733 15.5 30.52C14.7133 30.0533 14.1733 29.4133 13.88 28.6C13.5867 27.7733 13.5267 26.8333 13.7 25.78L17.06 25.18C16.9 26.3933 16.9533 27.2533 17.22 27.76C17.5 28.2533 18.0067 28.5 18.74 28.5C19.46 28.5 19.9667 28.26 20.26 27.78C20.5533 27.3 20.7 26.56 20.7 25.56V17.8H24.14ZM31.4047 31.2C30.298 31.2 29.338 30.9933 28.5247 30.58C27.7247 30.1667 27.1047 29.5733 26.6647 28.8C26.2247 28.0267 26.0047 27.0933 26.0047 26C26.0047 24.9067 26.2247 23.9733 26.6647 23.2C27.1047 22.4267 27.718 21.8333 28.5047 21.42C29.3047 21.0067 30.218 20.8 31.2447 20.8C32.298 20.8 33.1914 21.0067 33.9247 21.42C34.6714 21.82 35.238 22.38 35.6247 23.1C36.0114 23.8067 36.2047 24.62 36.2047 25.54C36.2047 25.78 36.198 26.02 36.1847 26.26C36.1714 26.5 36.1514 26.7 36.1247 26.86H28.2047V25.04H34.6247L33.0047 25.66C33.0047 24.86 32.858 24.2467 32.5647 23.82C32.2847 23.3933 31.8447 23.18 31.2447 23.18C30.818 23.18 30.4514 23.28 30.1447 23.48C29.8514 23.68 29.6247 23.9933 29.4647 24.42C29.318 24.8467 29.2447 25.3933 29.2447 26.06C29.2447 26.7133 29.3314 27.2467 29.5047 27.66C29.678 28.06 29.9247 28.3533 30.2447 28.54C30.5647 28.7133 30.9514 28.8 31.4047 28.8C31.9114 28.8 32.3114 28.7 32.6047 28.5C32.9114 28.3 33.138 28.02 33.2847 27.66L36.0047 28.56C35.818 29.1333 35.4914 29.62 35.0247 30.02C34.5714 30.4067 34.0247 30.7 33.3847 30.9C32.758 31.1 32.098 31.2 31.4047 31.2ZM38.1067 31V21H41.1067L41.2467 23.16C41.5001 22.4133 41.8734 21.8333 42.3667 21.42C42.8734 21.0067 43.5134 20.8 44.2867 20.8C44.5401 20.8 44.7534 20.82 44.9267 20.86C45.1134 20.9 45.2601 20.9533 45.3667 21.02L45.0267 23.82C44.8934 23.7667 44.7201 23.7267 44.5067 23.7C44.3067 23.66 44.0601 23.64 43.7667 23.64C43.3667 23.64 42.9934 23.7267 42.6467 23.9C42.3001 24.0733 42.0201 24.3333 41.8067 24.68C41.6067 25.0133 41.5067 25.44 41.5067 25.96V31H38.1067ZM51.4633 31.2C50.3566 31.2 49.3966 30.9933 48.5833 30.58C47.7833 30.1667 47.1633 29.5733 46.7233 28.8C46.2833 28.0267 46.0633 27.0933 46.0633 26C46.0633 24.9067 46.2833 23.9733 46.7233 23.2C47.1633 22.4267 47.7766 21.8333 48.5633 21.42C49.3633 21.0067 50.2766 20.8 51.3033 20.8C52.3566 20.8 53.2499 21.0067 53.9833 21.42C54.7299 21.82 55.2966 22.38 55.6833 23.1C56.0699 23.8067 56.2633 24.62 56.2633 25.54C56.2633 25.78 56.2566 26.02 56.2433 26.26C56.2299 26.5 56.2099 26.7 56.1833 26.86H48.2633V25.04H54.6833L53.0633 25.66C53.0633 24.86 52.9166 24.2467 52.6233 23.82C52.3433 23.3933 51.9033 23.18 51.3033 23.18C50.8766 23.18 50.5099 23.28 50.2033 23.48C49.9099 23.68 49.6833 23.9933 49.5233 24.42C49.3766 24.8467 49.3033 25.3933 49.3033 26.06C49.3033 26.7133 49.3899 27.2467 49.5633 27.66C49.7366 28.06 49.9833 28.3533 50.3033 28.54C50.6233 28.7133 51.0099 28.8 51.4633 28.8C51.9699 28.8 52.3699 28.7 52.6633 28.5C52.9699 28.3 53.1966 28.02 53.3433 27.66L56.0633 28.56C55.8766 29.1333 55.5499 29.62 55.0833 30.02C54.6299 30.4067 54.0833 30.7 53.4433 30.9C52.8166 31.1 52.1566 31.2 51.4633 31.2ZM58.1653 31V21H61.2053L61.3053 22.94C61.6253 22.2333 62.072 21.7 62.6453 21.34C63.232 20.98 63.9053 20.8 64.6653 20.8C65.412 20.8 66.0586 20.9667 66.6053 21.3C67.152 21.6333 67.5586 22.1267 67.8253 22.78C68.0386 22.34 68.312 21.9733 68.6453 21.68C68.992 21.3867 69.3853 21.1667 69.8253 21.02C70.2653 20.8733 70.7186 20.8 71.1853 20.8C71.852 20.8 72.4386 20.9333 72.9453 21.2C73.452 21.4533 73.852 21.8467 74.1453 22.38C74.452 22.9 74.6053 23.5533 74.6053 24.34V31H71.2053V25.12C71.2053 24.48 71.0786 24.0333 70.8253 23.78C70.5853 23.5267 70.2586 23.4 69.8453 23.4C69.512 23.4 69.2053 23.4867 68.9253 23.66C68.6586 23.82 68.452 24.0667 68.3053 24.4C68.1586 24.7333 68.0853 25.1533 68.0853 25.66V31H64.6853V25.12C64.6853 24.48 64.5586 24.0333 64.3053 23.78C64.052 23.5267 63.7253 23.4 63.3253 23.4C63.0186 23.4 62.7253 23.48 62.4453 23.64C62.1786 23.8 61.9653 24.0533 61.8053 24.4C61.6453 24.7333 61.5653 25.1733 61.5653 25.72V31H58.1653ZM86.6238 21L82.9838 31C82.6104 32.0533 82.2038 32.8933 81.7638 33.52C81.3238 34.1467 80.8038 34.6 80.2038 34.88C79.6038 35.16 78.8838 35.3 78.0438 35.3C77.4838 35.3 76.9704 35.24 76.5038 35.12C76.0371 35 75.6304 34.8333 75.2837 34.62L75.9638 32.32C76.2038 32.4933 76.4571 32.6133 76.7238 32.68C76.9904 32.76 77.3304 32.8 77.7438 32.8C78.1304 32.8 78.4438 32.7333 78.6838 32.6C78.9371 32.4667 79.1371 32.2133 79.2838 31.84L79.5438 31.22L78.3838 28.5L75.3838 21H79.1238L80.6638 26.7L81.1438 28.82L81.7038 26.62L83.2438 21H86.6238ZM105.247 17.8V31H101.427L97.3267 23.86L96.3267 21.9H96.3067L96.3867 24.34V31H93.3467V17.8H97.1667L101.267 24.94L102.267 26.9H102.287L102.207 24.46V17.8H105.247ZM112.632 20.8C113.686 20.8 114.606 21.0067 115.392 21.42C116.192 21.82 116.812 22.4133 117.252 23.2C117.706 23.9733 117.932 24.9067 117.932 26C117.932 27.0933 117.706 28.0333 117.252 28.82C116.812 29.5933 116.192 30.1867 115.392 30.6C114.606 31 113.686 31.2 112.632 31.2C111.606 31.2 110.692 31 109.892 30.6C109.092 30.1867 108.466 29.5933 108.012 28.82C107.572 28.0333 107.352 27.0933 107.352 26C107.352 24.9067 107.572 23.9733 108.012 23.2C108.466 22.4133 109.092 21.82 109.892 21.42C110.692 21.0067 111.606 20.8 112.632 20.8ZM112.632 23.22C112.246 23.22 111.912 23.3133 111.632 23.5C111.352 23.6867 111.139 23.9867 110.992 24.4C110.846 24.8133 110.772 25.3467 110.772 26C110.772 26.6533 110.846 27.1867 110.992 27.6C111.139 28 111.352 28.3 111.632 28.5C111.912 28.6867 112.246 28.78 112.632 28.78C113.032 28.78 113.372 28.6867 113.652 28.5C113.932 28.3 114.146 28 114.292 27.6C114.439 27.1867 114.512 26.6533 114.512 26C114.512 25.3467 114.439 24.8133 114.292 24.4C114.146 23.9867 113.932 23.6867 113.652 23.5C113.372 23.3133 113.032 23.22 112.632 23.22ZM124.725 31.2C123.618 31.2 122.658 30.9933 121.845 30.58C121.045 30.1667 120.425 29.5733 119.985 28.8C119.545 28.0267 119.325 27.0933 119.325 26C119.325 24.9067 119.545 23.9733 119.985 23.2C120.425 22.4267 121.038 21.8333 121.825 21.42C122.625 21.0067 123.538 20.8 124.565 20.8C125.618 20.8 126.512 21.0067 127.245 21.42C127.992 21.82 128.558 22.38 128.945 23.1C129.332 23.8067 129.525 24.62 129.525 25.54C129.525 25.78 129.518 26.02 129.505 26.26C129.492 26.5 129.472 26.7 129.445 26.86H121.525V25.04H127.945L126.325 25.66C126.325 24.86 126.178 24.2467 125.885 23.82C125.605 23.3933 125.165 23.18 124.565 23.18C124.138 23.18 123.772 23.28 123.465 23.48C123.172 23.68 122.945 23.9933 122.785 24.42C122.638 24.8467 122.565 25.3933 122.565 26.06C122.565 26.7133 122.652 27.2467 122.825 27.66C122.998 28.06 123.245 28.3533 123.565 28.54C123.885 28.7133 124.272 28.8 124.725 28.8C125.232 28.8 125.632 28.7 125.925 28.5C126.232 28.3 126.458 28.02 126.605 27.66L129.325 28.56C129.138 29.1333 128.812 29.62 128.345 30.02C127.892 30.4067 127.345 30.7 126.705 30.9C126.078 31.1 125.418 31.2 124.725 31.2ZM134.787 16.76V27.6C134.787 28.04 134.86 28.3533 135.007 28.54C135.154 28.7267 135.4 28.82 135.747 28.82C135.947 28.82 136.114 28.8067 136.247 28.78C136.38 28.7533 136.54 28.7133 136.727 28.66L136.507 30.7C136.267 30.8467 135.954 30.9667 135.567 31.06C135.18 31.1533 134.8 31.2 134.427 31.2C133.36 31.2 132.587 30.9533 132.107 30.46C131.627 29.9667 131.387 29.16 131.387 28.04V16.76H134.787Z" fill="black"/>
</svg>
